<svg xmlns="http://www.w3.org/2000/svg" width="820" height="460" viewBox="0 0 820 460"><rect width="100%" height="100%" fill="#ffffff"/><style>text{font-family:Arial,sans-serif;fill:#111827} .axis{stroke:#374151;stroke-width:1} .grid{stroke:#e5e7eb;stroke-width:1} .label{font-size:12px;fill:#4b5563} .title{font-size:18px;font-weight:700}</style><text x="410.0" y="28" text-anchor="middle" class="title">Anisotropy Spread Reduction</text><line x1="70" y1="395.0" x2="790" y2="395.0" class="grid"/><text x="60" y="399.0" text-anchor="end" class="label">0.98x</text><line x1="70" y1="281.7" x2="790" y2="281.7" class="grid"/><text x="60" y="285.7" text-anchor="end" class="label">1.00x</text><line x1="70" y1="168.3" x2="790" y2="168.3" class="grid"/><text x="60" y="172.3" text-anchor="end" class="label">1.02x</text><line x1="70" y1="55.0" x2="790" y2="55.0" class="grid"/><text x="60" y="59.0" text-anchor="end" class="label">1.04x</text><line x1="70" y1="55" x2="70" y2="395" class="axis"/><line x1="70" y1="395" x2="790" y2="395" class="axis"/><rect x="114.0" y="187.0" width="56" height="208.0" fill="#0f766e"/><text x="142.0" y="181.0" text-anchor="middle" class="label">1.02x</text><text x="142.0" y="417" text-anchor="middle" class="label">42</text><rect x="258.0" y="159.4" width="56" height="235.6" fill="#0f766e"/><text x="286.0" y="153.4" text-anchor="middle" class="label">1.02x</text><text x="286.0" y="417" text-anchor="middle" class="label">101</text><rect x="402.0" y="154.2" width="56" height="240.8" fill="#0f766e"/><text x="430.0" y="148.2" text-anchor="middle" class="label">1.02x</text><text x="430.0" y="417" text-anchor="middle" class="label">202</text><rect x="546.0" y="164.1" width="56" height="230.9" fill="#0f766e"/><text x="574.0" y="158.1" text-anchor="middle" class="label">1.02x</text><text x="574.0" y="417" text-anchor="middle" class="label">303</text><rect x="690.0" y="150.8" width="56" height="244.2" fill="#0f766e"/><text x="718.0" y="144.8" text-anchor="middle" class="label">1.02x</text><text x="718.0" y="417" text-anchor="middle" class="label">404</text><text x="410.0" y="440" text-anchor="middle" class="label">Seed</text><text x="18" y="230.0" transform="rotate(-90 18 230.0)" text-anchor="middle" class="label">Reduction factor</text></svg>