<svg xmlns="http://www.w3.org/2000/svg" width="820" height="460" viewBox="0 0 820 460"><rect width="100%" height="100%" fill="#ffffff"/><style>text{font-family:Arial,sans-serif;fill:#111827} .axis{stroke:#374151;stroke-width:1} .grid{stroke:#e5e7eb;stroke-width:1} .label{font-size:12px;fill:#4b5563} .title{font-size:18px;font-weight:700}</style><text x="410.0" y="28" text-anchor="middle" class="title">Example Adaptive Precision Vectors</text><line x1="70" y1="395.0" x2="790" y2="395.0" class="grid"/><text x="60" y="399.0" text-anchor="end" class="label">0.6</text><line x1="70" y1="327.0" x2="790" y2="327.0" class="grid"/><text x="60" y="331.0" text-anchor="end" class="label">0.8</text><line x1="70" y1="259.0" x2="790" y2="259.0" class="grid"/><text x="60" y="263.0" text-anchor="end" class="label">1.0</text><line x1="70" y1="191.0" x2="790" y2="191.0" class="grid"/><text x="60" y="195.0" text-anchor="end" class="label">1.2</text><line x1="70" y1="123.0" x2="790" y2="123.0" class="grid"/><text x="60" y="127.0" text-anchor="end" class="label">1.4</text><line x1="70" y1="55.0" x2="790" y2="55.0" class="grid"/><text x="60" y="59.0" text-anchor="end" class="label">1.6</text><line x1="70" y1="55" x2="70" y2="395" class="axis"/><line x1="70" y1="395" x2="790" y2="395" class="axis"/><polyline points="70.0,124.0 81.4,401.6 92.9,71.0 104.3,77.7 115.7,400.1 127.1,67.5 138.6,401.7 150.0,341.3 161.4,306.3 172.9,234.9 184.3,242.9 195.7,400.6 207.1,139.4 218.6,89.7 230.0,58.9 241.4,76.5 252.9,72.8 264.3,383.9 275.7,393.1 287.1,379.8 298.6,82.4 310.0,74.4 321.4,255.7 332.9,90.3 344.3,51.1 355.7,99.7 367.1,93.1 378.6,146.3 390.0,365.3 401.4,148.3 412.9,401.7 424.3,388.6 435.7,368.9 447.1,350.3 458.6,262.8 470.0,85.2 481.4,229.8 492.9,81.9 504.3,61.1 515.7,78.8 527.1,399.8 538.6,381.4 550.0,62.5 561.4,398.0 572.9,400.5 584.3,205.9 595.7,390.5 607.1,318.0 618.6,65.3 630.0,126.0 641.4,368.8 652.9,381.8 664.3,61.7 675.7,71.8 687.1,401.7 698.6,383.5 710.0,401.7 721.4,271.8 732.9,60.4 744.3,401.7 755.7,356.5 767.1,397.1 778.6,401.7 790.0,400.3" fill="none" stroke="#2563eb" stroke-width="2"/><polyline points="70.0,316.5 81.4,410.6 92.9,273.4 104.3,82.6 115.7,92.4 127.1,207.7 138.6,410.6 150.0,102.0 161.4,272.9 172.9,406.6 184.3,99.1 195.7,410.6 207.1,344.3 218.6,368.9 230.0,410.1 241.4,79.1 252.9,336.2 264.3,410.6 275.7,95.2 287.1,90.2 298.6,410.6 310.0,81.2 321.4,78.5 332.9,116.1 344.3,410.6 355.7,286.5 367.1,78.4 378.6,78.5 390.0,387.3 401.4,410.3 412.9,409.6 424.3,102.8 435.7,405.5 447.1,84.3 458.6,79.1 470.0,410.6 481.4,409.0 492.9,350.7 504.3,408.0 515.7,93.7 527.1,157.9 538.6,386.0 550.0,334.5 561.4,77.1 572.9,99.5 584.3,124.0 595.7,81.4 607.1,110.3 618.6,81.2 630.0,89.6 641.4,396.4 652.9,219.3 664.3,93.6 675.7,133.6 687.1,119.0 698.6,410.1 710.0,410.1 721.4,408.8 732.9,171.8 744.3,409.8 755.7,250.6 767.1,271.5 778.6,124.5 790.0,216.4" fill="none" stroke="#dc2626" stroke-width="2"/><polyline points="70.0,267.5 81.4,85.3 92.9,400.1 104.3,48.7 115.7,90.4 127.1,47.8 138.6,308.8 150.0,394.6 161.4,397.1 172.9,241.1 184.3,90.3 195.7,218.9 207.1,56.4 218.6,400.5 230.0,134.4 241.4,397.8 252.9,400.5 264.3,50.3 275.7,397.9 287.1,287.1 298.6,51.5 310.0,269.5 321.4,108.2 332.9,129.7 344.3,400.5 355.7,324.6 367.1,267.4 378.6,106.8 390.0,393.7 401.4,156.6 412.9,399.1 424.3,172.6 435.7,400.5 447.1,69.2 458.6,400.5 470.0,399.1 481.4,212.8 492.9,388.0 504.3,399.6 515.7,54.0 527.1,400.5 538.6,333.9 550.0,101.1 561.4,385.5 572.9,281.7 584.3,400.5 595.7,48.5 607.1,278.7 618.6,57.8 630.0,340.7 641.4,400.4 652.9,99.6 664.3,287.6 675.7,60.0 687.1,89.9 698.6,112.4 710.0,84.4 721.4,66.2 732.9,277.5 744.3,199.6 755.7,207.4 767.1,397.1 778.6,396.4 790.0,360.9" fill="none" stroke="#0f766e" stroke-width="2"/><line x1="610" y1="64" x2="628" y2="64" stroke="#2563eb" stroke-width="3"/><text x="636" y="68" class="label">noise 0.5</text><line x1="610" y1="86" x2="628" y2="86" stroke="#dc2626" stroke-width="3"/><text x="636" y="90" class="label">noise 0.7</text><line x1="610" y1="108" x2="628" y2="108" stroke="#0f766e" stroke-width="3"/><text x="636" y="112" class="label">noise 0.8</text><text x="410.0" y="440" text-anchor="middle" class="label">Dimension</text><text x="18" y="230.0" transform="rotate(-90 18 230.0)" text-anchor="middle" class="label">Precision</text></svg>