<svg xmlns="http://www.w3.org/2000/svg" width="820" height="460" viewBox="0 0 820 460"><rect width="100%" height="100%" fill="#ffffff"/><style>text{font-family:Arial,sans-serif;fill:#111827} .axis{stroke:#374151;stroke-width:1} .grid{stroke:#e5e7eb;stroke-width:1} .label{font-size:12px;fill:#4b5563} .title{font-size:18px;font-weight:700}</style><text x="410.0" y="28" text-anchor="middle" class="title">Baseline vs Agent Retrieval Accuracy</text><line x1="70" y1="395.0" x2="790" y2="395.0" class="grid"/><text x="60" y="399.0" text-anchor="end" class="label">0.0</text><line x1="70" y1="327.0" x2="790" y2="327.0" class="grid"/><text x="60" y="331.0" text-anchor="end" class="label">0.2</text><line x1="70" y1="259.0" x2="790" y2="259.0" class="grid"/><text x="60" y="263.0" text-anchor="end" class="label">0.4</text><line x1="70" y1="191.0" x2="790" y2="191.0" class="grid"/><text x="60" y="195.0" text-anchor="end" class="label">0.6</text><line x1="70" y1="123.0" x2="790" y2="123.0" class="grid"/><text x="60" y="127.0" text-anchor="end" class="label">0.8</text><line x1="70" y1="55.0" x2="790" y2="55.0" class="grid"/><text x="60" y="59.0" text-anchor="end" class="label">1.0</text><line x1="70" y1="55" x2="70" y2="395" class="axis"/><line x1="70" y1="395" x2="790" y2="395" class="axis"/><rect x="99.4" y="98.2" width="40.3" height="296.8" fill="#6b7280"/><rect x="144.2" y="90.4" width="40.3" height="304.6" fill="#2563eb"/><text x="142.0" y="417" text-anchor="middle" class="label">42</text><rect x="243.4" y="127.1" width="40.3" height="267.9" fill="#6b7280"/><rect x="288.2" y="94.1" width="40.3" height="300.9" fill="#2563eb"/><text x="286.0" y="417" text-anchor="middle" class="label">101</text><rect x="387.4" y="156.7" width="40.3" height="238.3" fill="#6b7280"/><rect x="432.2" y="98.2" width="40.3" height="296.8" fill="#2563eb"/><text x="430.0" y="417" text-anchor="middle" class="label">202</text><rect x="531.4" y="124.7" width="40.3" height="270.3" fill="#6b7280"/><rect x="576.2" y="106.3" width="40.3" height="288.7" fill="#2563eb"/><text x="574.0" y="417" text-anchor="middle" class="label">303</text><rect x="675.4" y="151.2" width="40.3" height="243.8" fill="#6b7280"/><rect x="720.2" y="103.6" width="40.3" height="291.4" fill="#2563eb"/><text x="718.0" y="417" text-anchor="middle" class="label">404</text><rect x="610" y="60" width="14" height="14" fill="#6b7280"/><text x="630" y="72" class="label">Pi=I baseline</text><rect x="610" y="84" width="14" height="14" fill="#2563eb"/><text x="630" y="96" class="label">Agent</text><text x="410.0" y="440" text-anchor="middle" class="label">Seed</text><text x="18" y="230.0" transform="rotate(-90 18 230.0)" text-anchor="middle" class="label">Retrieval accuracy</text></svg>